#!OML:ASF F:\twosubjects\two\Thursday\Session 1\Rory.ASF
:FULLY-SPECIFIED
:DEGREES
501
root 15.902 18.0807 -20.3549 -174.194 -116.767 182.984
lowerback 5.39253 0.147499 -1.46354
upperback 2.58257 0.0608916 -2.13177
thorax -0.367509 0.0106407 -1.37073
lowerneck -11.2494 8.6741 7.82439
upperneck 7.26191 11.9424 -14.107
head 5.38732 5.25001 -4.63156
rclavicle 1.03368e-014 -1.94809e-014
rhumerus -41.5729 -7.11766 -80.1859
rradius 41.1289
rwrist 16.2061
rhand -16.991 25.6601
rfingers 7.12502
rthumb 9.24399 -4.1173
lclavicle 1.03368e-014 -1.94809e-014
lhumerus -44.5789 -6.95318 94.3653
lradius 96.4165
lwrist -28.2952
lhand -18.9033 32.8133
lfingers 7.12502
lthumb 7.39847 62.6639
rfemur -9.37856 2.35505 14.2382
rtibia 20.3833
rfoot -13.0041 -26.9444
rtoes -13.9299
lfemur -21.6731 9.60977 -12.8423
ltibia 27.6592
lfoot -11.7427 21.8569
ltoes 25.6296
502
root 15.8759 18.0829 -20.3219 -174.819 -117.482 183.645
lowerback 5.17704 0.289825 -1.75177
upperback 2.5466 0.238514 -2.39328
thorax -0.281907 0.0975412 -1.48698
lowerneck -11.9537 8.45772 8.05155
upperneck 7.9007 11.6115 -13.7788
head 5.656 5.06821 -4.57405
rclavicle 1.70955e-014 -2.62396e-014
rhumerus -41.5202 -7.83854 -80.0006
rradius 40.9604
rwrist 16.2551
rhand -17.672 25.3352
rfingers 7.12502
rthumb 8.58691 -4.47023
lclavicle 1.70955e-014 -2.62396e-014
lhumerus -44.3509 -7.62141 94.337
lradius 96.804
lwrist -28.7002
lhand -24.7884 37.9525
lfingers 7.12502
lthumb 1.71589 67.9254
rfemur -8.94506 2.26672 13.8769
rtibia 20.25
rfoot -13.5363 -27.3189
rtoes -12.9001
lfemur -21.2276 9.33905 -13.0292
ltibia 26.8461
lfoot -11.6681 22.662
ltoes 24.9829
503
root 15.8566 18.081 -20.2926 -174.054 -118.285 182.915
lowerback 4.89641 0.268579 -1.35484
upperback 2.42577 0.236373 -2.47452
thorax -0.247869 0.10158 -1.79196
lowerneck -12.4854 8.35343 7.8893
upperneck 8.38089 11.4408 -13.1302
head 5.82142 4.98777 -4.34237
rclavicle 8.34896e-015 -2.38542e-015
rhumerus -41.3665 -8.45509 -79.8036
rradius 40.6847
rwrist 16.4218
rhand -16.6576 26.4763
rfingers 7.12502
rthumb 9.56575 -3.28657
lclavicle 8.34896e-015 -2.38542e-015
lhumerus -43.7261 -8.56153 94.2904
lradius 96.6481
lwrist -28.264
lhand -23.6895 38.1828
lfingers 7.12502
lthumb 2.77719 68.1445
rfemur -8.68816 2.65252 14.2951
rtibia 20.0927
rfoot -13.8644 -28.2901
rtoes -12.6118
lfemur -20.9652 9.25654 -12.5342
ltibia 25.9571
lfoot -11.5051 22.5451
ltoes 23.9191
504
root 15.8358 18.077 -20.2593 -173.623 -118.95 182.187
lowerback 4.88711 0.308041 -1.09987
upperback 2.36989 0.301999 -2.40478
thorax -0.297809 0.137121 -1.86672
lowerneck -12.6175 7.99018 7.46054
upperneck 8.6171 10.959 -12.5317
head 5.80219 4.76886 -4.13533
rclavicle -1.74931e-014 3.33958e-014
rhumerus -41.2612 -9.06691 -79.2771
rradius 40.3518
rwrist 16.7055
rhand -16.2448 27.0776
rfingers 7.12502
rthumb 9.96396 -2.66653
lclavicle -1.74931e-014 3.33958e-014
lhumerus -43.0773 -9.50288 94.5176
lradius 96.382
lwrist -27.1653
lhand -24.5299 38.892
lfingers 7.12502
lthumb 1.96564 68.8627
rfemur -8.11076 3.08016 14.7359
rtibia 19.9976
rfoot -13.58 -29.2108
rtoes -14.1369
lfemur -20.3398 9.29128 -12.0006
ltibia 25.0409
lfoot -10.8631 21.7303
ltoes 22.8506
505
root 15.8126 18.0755 -20.211 -173.958 -119.641 182.148
lowerback 4.83591 0.298107 -1.12204
upperback 2.47295 0.291829 -2.36064
thorax -0.164047 0.13162 -1.80774
lowerneck -12.7823 7.68124 7.25497
upperneck 8.82226 10.5624 -12.3526
head 5.83102 4.56967 -4.08548
rclavicle -9.85972e-014 2.06736e-014
rhumerus -41.0039 -9.42975 -78.7286
rradius 40.1062
rwrist 16.9095
rhand -16.6753 27.1035
rfingers 7.12502
rthumb 9.54864 -2.6601
lclavicle -9.85972e-014 2.06736e-014
lhumerus -42.9096 -9.7149 94.7669
lradius 96.9721
lwrist -26.7612
lhand -24.6881 38.9628
lfingers 7.12502
lthumb 1.81285 68.9348
rfemur -7.34359 3.07093 14.7393
rtibia 19.9458
rfoot -13.5072 -29.6512
rtoes -15.1911
lfemur -19.5174 8.90359 -11.839
ltibia 24.2313
lfoot -10.5183 20.4699
ltoes 22.0384
506
root 15.7969 18.0712 -20.1572 -174.476 -120.469 182.724
lowerback 4.43628 0.230518 -1.28607
upperback 2.45417 0.205683 -2.49314
thorax 0.0374465 0.0879452 -1.84598
lowerneck -12.9914 7.4968 7.12388
upperneck 9.1976 10.3275 -12.0895
head 5.93672 4.45131 -4.00016
rclavicle 2.88238e-014 -3.18055e-015
rhumerus -40.8871 -9.73416 -78.3674
rradius 40.0669
rwrist 16.6029
rhand -19.7043 26.5972
rfingers 7.12502
rthumb 6.62527 -3.2792
lclavicle 2.88238e-014 -3.18055e-015
lhumerus -43.3868 -9.87153 95.0733
lradius 98.3833
lwrist -26.1025
lhand -23.7533 38.1546
lfingers 7.12502
lthumb 2.71561 68.1171
rfemur -6.92277 2.94754 14.3426
rtibia 19.8512
rfoot -13.9081 -30.0508
rtoes -14.7902
lfemur -19.1489 8.36052 -12.1507
ltibia 23.5643
lfoot -10.5831 19.0777
ltoes 19.7268
507
root 15.7796 18.0611 -20.1134 -174.886 -121.113 183.117
lowerback 4.22238 0.369201 -1.48366
upperback 2.29998 0.383451 -2.75672
thorax 0.00330777 0.176256 -2.01302
lowerneck -12.9294 7.02085 6.97918
upperneck 9.49228 9.63584 -11.3345
head 5.89868 4.16095 -3.8152
rclavicle 1.82882e-014 -2.38542e-015
rhumerus -41.1926 -10.4628 -78.1174
rradius 40.0946
rwrist 16.2875
rhand -24.6966 25.5198
rfingers 7.12502
rthumb 1.80458 -4.45231
lclavicle 1.82882e-014 -2.38542e-015
lhumerus -43.7878 -10.9766 95.2865
lradius 99.491
lwrist -24.9457
lhand -22.7414 37.5121
lfingers 7.12502
lthumb 3.6928 67.4599
rfemur -6.47181 3.44826 14.0975
rtibia 19.8013
rfoot -14.6154 -30.8413
rtoes -13.8585
lfemur -18.7328 8.60205 -12.4583
ltibia 22.9847
lfoot -10.4968 17.6678
ltoes 15.728
